<svg width="590" height="861" viewBox="0 0 590 861" fill="none" xmlns="http://www.w3.org/2000/svg">
<path d="M579.39 119.18H424.46V348.37H579.39V119.18Z" fill="#3EC1F3"/>
<path d="M379.07 119.18H424.46V348.37H322.7V175.55C322.7 160.6 328.639 146.262 339.21 135.69C349.782 125.119 364.12 119.18 379.07 119.18Z" fill="#3EC1F3"/>
<path d="M370.83 303.45C383.251 303.45 393.32 292.445 393.32 278.87C393.32 265.295 383.251 254.29 370.83 254.29C358.409 254.29 348.34 265.295 348.34 278.87C348.34 292.445 358.409 303.45 370.83 303.45Z" fill="#F4E6D8"/>
<path d="M402.46 279.4H339.2C339.198 285.683 341.068 291.824 344.571 297.039C348.075 302.254 353.053 306.307 358.87 308.68V316.68H382.79V308.68C388.607 306.307 393.585 302.254 397.089 297.039C400.592 291.824 402.462 285.683 402.46 279.4Z" fill="#4756DF"/>
<path d="M321.53 218L422.53 177" stroke="#4756DF" stroke-width="4" stroke-miterlimit="10" stroke-linecap="round"/>
<path d="M422.63 119.18V348.37" stroke="#4756DF" stroke-width="4" stroke-miterlimit="10"/>
<path d="M991.93 720.57V632.57L938.76 578.48H789.33L736.16 632.57V714.16H550.06V680.23C490.47 673.81 508.8 629.81 475.8 629.81H417.13C412.854 629.794 408.664 631.009 405.06 633.31L322.23 582.12H236.98L130.18 648.12H130.41V731.22L58.68 775.55V851.64H1045.1V774.64L991.93 720.57Z" fill="#F5EBDD"/>
<path d="M268 466.66C296 457.99 332 445.53 441.55 535.12C551.1 624.71 592.55 566.12 581.34 552.58C572.34 541.68 522.08 571.09 559.49 610.74C595.04 648.44 699.23 612.38 727.8 589.3C768.46 556.46 826.67 530.63 877.98 528.77" stroke="#FFB7D5" stroke-width="4" stroke-linecap="round" stroke-linejoin="round" stroke-dasharray="12 12"/>
<path d="M343.79 648.14L236.98 582.14" stroke="#FFB7D5" stroke-width="4" stroke-linecap="round" stroke-linejoin="round"/>
<path d="M131.41 648.14H344.02V850.66" stroke="#FFB7D5" stroke-width="4" stroke-linecap="round" stroke-linejoin="round"/>
<path d="M127.66 851.04L128.66 732.22" stroke="#FFB7D5" stroke-width="4" stroke-linecap="round" stroke-linejoin="round"/>
<path d="M59.68 775.57H127.43" stroke="#FFB7D5" stroke-width="4" stroke-linecap="round" stroke-linejoin="round"/>
<path d="M128.81 761.36H342.41" stroke="#FFB7D5" stroke-width="4" stroke-linecap="round" stroke-linejoin="round"/>
<path d="M343.79 648.14H393.63" stroke="#FFB7D5" stroke-width="4" stroke-linecap="round" stroke-linejoin="round"/>
<path d="M492.3 682.06H549.06" stroke="#FFB7D5" stroke-width="4" stroke-linecap="round" stroke-linejoin="round"/>
<path d="M418.25 631.64C385.25 631.64 403.58 675.64 343.99 682.06H492.53C432.91 675.65 451.25 631.64 418.25 631.64Z" stroke="#FFB7D5" stroke-width="4" stroke-linecap="round" stroke-linejoin="round"/>
<path d="M343.99 849.66V682.07H492.5V850.66" stroke="#FFB7D5" stroke-width="4" stroke-linecap="round" stroke-linejoin="round"/>
<path d="M492.3 849.66V730.65H733.87V850.66" stroke="#FFB7D5" stroke-width="4" stroke-linecap="round" stroke-linejoin="round"/>
<path d="M492.73 728.41L548.53 712.31" stroke="#FFB7D5" stroke-width="4" stroke-linecap="round" stroke-linejoin="round"/>
<path d="M733.87 715.15V730.65H492.3" stroke="#FFB7D5" stroke-width="4" stroke-linecap="round" stroke-linejoin="round"/>
<path d="M540.29 758.16H540.53C544.869 758.16 549.03 759.884 552.098 762.952C555.166 766.02 556.89 770.181 556.89 774.52V851.67H523.89V774.52C523.89 772.368 524.314 770.238 525.139 768.25C525.964 766.263 527.173 764.457 528.696 762.938C530.219 761.418 532.028 760.214 534.017 759.394C536.007 758.574 538.138 758.155 540.29 758.16Z" fill="#FFB7D5"/>
<path d="M174.28 795.74H174.53C178.869 795.74 183.03 797.464 186.098 800.532C189.166 803.6 190.89 807.761 190.89 812.1V851.66H157.89V812.1C157.89 809.952 158.313 807.824 159.135 805.839C159.958 803.854 161.163 802.051 162.682 800.532C164.201 799.013 166.004 797.808 167.989 796.985C169.974 796.163 172.102 795.74 174.25 795.74H174.28Z" fill="#FFB7D5"/>
<path d="M299.87 795.74H300.15C302.3 795.737 304.43 796.159 306.417 796.98C308.404 797.801 310.21 799.005 311.731 800.525C313.252 802.044 314.459 803.848 315.283 805.835C316.106 807.821 316.53 809.95 316.53 812.1V851.66H283.53V812.1C283.53 807.765 285.251 803.606 288.315 800.539C291.378 797.471 295.535 795.745 299.87 795.74Z" fill="#FFB7D5"/>
<path d="M237.07 795.74H237.35C241.689 795.74 245.85 797.464 248.918 800.532C251.986 803.6 253.71 807.761 253.71 812.1V851.66H220.71V812.1C220.71 807.761 222.434 803.6 225.502 800.532C228.57 797.464 232.731 795.74 237.07 795.74Z" fill="#FFB7D5"/>
<path d="M190.91 677.48H157.91V733.4H190.91V677.48Z" fill="#FFB7D5"/>
<path d="M316.51 677.48H283.51V733.4H316.51V677.48Z" fill="#FFB7D5"/>
<path d="M253.71 677.48H220.71V733.4H253.71V677.48Z" fill="#FFB7D5"/>
<path d="M405.86 710.48H378.44V751.73H405.86V710.48Z" fill="#FFB7D5"/>
<path d="M458.04 710.48H430.62V751.73H458.04V710.48Z" fill="#FFB7D5"/>
<path d="M405.86 782.91H378.44V824.16H405.86V782.91Z" fill="#FFB7D5"/>
<path d="M458.04 782.91H430.62V824.16H458.04V782.91Z" fill="#FFB7D5"/>
<path d="M273.2 414.83C273.2 435.46 251.2 459.29 242.48 459.29C233.76 459.29 211.77 435.46 211.77 414.83C211.915 406.78 215.215 399.109 220.96 393.467C226.704 387.825 234.434 384.664 242.485 384.664C250.536 384.664 258.266 387.825 264.01 393.467C269.755 399.109 273.055 406.78 273.2 414.83Z" fill="#FFB7D5"/>
<path d="M242.48 424.46C247.798 424.46 252.11 420.148 252.11 414.83C252.11 409.511 247.798 405.2 242.48 405.2C237.161 405.2 232.85 409.511 232.85 414.83C232.85 420.148 237.161 424.46 242.48 424.46Z" fill="white"/>
<path d="M30.07 851.66H87.83C87.83 835.72 74.9 819.58 58.95 819.58C43 819.58 30.07 835.72 30.07 851.66Z" fill="#FFB7D5"/>
<path d="M0 851.66H42.91C42.91 839.82 33.3 827.83 21.46 827.83C9.61999 827.83 0 839.82 0 851.66Z" fill="#FFB7D5"/>
<path d="M523.32 284C452.15 327.51 427.4 448.71 412.32 492.93C396.01 540.75 360.09 539.66 318.41 553.58C276.73 567.5 278.28 597.85 278.28 597.85C268.538 604.487 259.229 611.738 250.41 619.56L303.18 687C315.63 678.41 334.11 667.64 359.46 652.33C411.82 620.7 458.69 591 488.94 558C519.19 525 598.69 380.3 598.69 380.3L523.32 284Z" fill="#4856DF"/>
<path d="M303.18 687L250.4 619.57C226.8 640.57 212.66 660.57 205.55 672.21L279.96 767.27C290.44 748.27 282.11 721.53 282.96 709.86C283.53 702.83 289.91 696.16 303.18 687Z" fill="#30242A"/>
<path d="M199.77 682.69L272.93 776.16C275.746 773.615 278.113 770.613 279.93 767.28L205.53 672.22C203.423 675.604 201.5 679.099 199.77 682.69Z" fill="#3EC1F3"/>
<path d="M276.12 691L290.29 698.89" stroke="white" stroke-width="4" stroke-linecap="round" stroke-linejoin="round"/>
<path d="M269.81 705.26L284.01 708.48" stroke="white" stroke-width="4" stroke-linecap="round" stroke-linejoin="round"/>
<path d="M295.15 624.72L269.87 644.48" stroke="#3EC1F3" stroke-width="4" stroke-miterlimit="10" stroke-linecap="round"/>
<path d="M282.35 608.35L257.07 628.11" stroke="#3EC1F3" stroke-width="4" stroke-miterlimit="10" stroke-linecap="round"/>
<path d="M307.95 641.09L282.67 660.85" stroke="#3EC1F3" stroke-width="4" stroke-miterlimit="10" stroke-linecap="round"/>
<path d="M320.75 657.46L295.47 677.22" stroke="#3EC1F3" stroke-width="4" stroke-miterlimit="10" stroke-linecap="round"/>
<path d="M275.99 598.72L331.46 669.68" stroke="#3EC1F3" stroke-width="4" stroke-miterlimit="10" stroke-linecap="round"/>
<path d="M545.35 472.48C533.3 453.48 521.51 432.48 512.55 410.81" stroke="#30242A" stroke-width="4" stroke-linecap="round" stroke-linejoin="round"/>
<path d="M565.18 17.42C569.99 17.42 573.89 13.5204 573.89 8.71001C573.89 3.89961 569.99 0 565.18 0C560.37 0 556.47 3.89961 556.47 8.71001C556.47 13.5204 560.37 17.42 565.18 17.42Z" fill="#4756DF"/>
<path d="M592.83 135.68L592.23 125.56C603.88 127.02 612.51 125.29 618.68 122.13L592.23 100.84C592.23 100.84 601.39 97.18 595.89 77.92L625.33 67.22C623.78 63.22 622.75 53.58 619.78 43.22L602.25 50.85C598.157 58.7035 592.288 65.4936 585.11 70.68C582.144 67.6129 578.832 64.9014 575.24 62.6C574.76 62.29 574.24 62 573.76 61.71H573.71C573.22 61.43 572.71 61.16 572.22 60.9H572.14C571.64 60.65 571.14 60.4 570.63 60.18L570.53 60C570.04 59.77 569.53 59.57 569.02 59.37H568.88C568.37 59.19 567.88 59.02 567.36 58.86H567.19C566.69 58.71 566.19 58.58 565.67 58.47H565.49C564.98 58.36 564.49 58.28 563.97 58.22H563.77C563.27 58.17 562.77 58.14 562.26 58.13C557.89 58.07 553.56 59.85 549.95 64.9C547.795 67.8278 546.625 71.3645 546.61 75C546.68 85.75 556.68 96 565.61 99C558.55 113.89 535.74 123.18 526.99 126.27C527.27 129.68 527.54 132.85 527.78 135.68H592.83Z" fill="#EAA58B"/>
<path d="M476.72 198C476.72 198 449.72 220.51 467.97 250.65L477.58 196.65L476.72 198Z" fill="#FF7235"/>
<path d="M527.74 135.68V136.01L528.9 135.68H527.74Z" fill="#FF7235"/>
<path d="M565.53 99C556.64 96 546.64 85.78 546.53 75L523.62 85C524.51 97.62 525.8 113.53 526.87 126.27C535.7 123.18 558.53 113.89 565.53 99Z" fill="#30242A"/>
<path d="M585.11 70.66C592.288 65.4736 598.157 58.6835 602.25 50.83L575.25 62.58C578.839 64.882 582.148 67.5936 585.11 70.66Z" fill="#30242A"/>
<path d="M570.63 60.09L570.53 60L570.63 60.09Z" fill="#4756DF"/>
<path d="M549.93 64.8C553.54 59.75 557.87 57.97 562.24 58.03H562.14C559.63 30.28 565.82 15.19 570.41 8.03003C566.009 8.67999 561.663 9.66281 557.41 10.97C525.6 20.6 521.95 51.97 522.84 70.63C523.01 74.37 523.33 79.35 523.72 84.97L546.63 74.97C546.619 71.3151 547.775 67.7521 549.93 64.8Z" fill="#4756DF"/>
<path d="M573.71 61.66C573.22 61.38 572.71 61.11 572.22 60.85C572.73 61.11 573.22 61.38 573.71 61.66Z" fill="#3EC1F3"/>
<path d="M575.24 62.5799C574.76 62.2699 574.24 61.9799 573.76 61.6899C574.26 61.9999 574.76 62.2699 575.24 62.5799Z" fill="#3EC1F3"/>
<path d="M567.17 58.81C566.67 58.66 566.17 58.53 565.65 58.42C566.16 58.53 566.67 58.66 567.17 58.81Z" fill="#3EC1F3"/>
<path d="M572.14 60.81C571.64 60.56 571.14 60.31 570.63 60.09C571.14 60.31 571.64 60.56 572.14 60.81Z" fill="#3EC1F3"/>
<path d="M563.75 58.12C563.25 58.07 562.75 58.04 562.24 58.03C562.74 58 563.25 58.07 563.75 58.12Z" fill="#3EC1F3"/>
<path d="M565.47 58.39C564.96 58.28 564.47 58.2 563.95 58.14C564.46 58.2 564.96 58.28 565.47 58.39Z" fill="#3EC1F3"/>
<path d="M568.86 59.36C568.35 59.18 567.86 59.01 567.34 58.85C567.85 59 568.35 59.18 568.86 59.36Z" fill="#3EC1F3"/>
<path d="M570.53 60C570.04 59.77 569.53 59.57 569.02 59.37C569.53 59.61 570.02 59.81 570.53 60Z" fill="#3EC1F3"/>
<path d="M562.14 58H562.24C562.74 58 563.24 58 563.75 58.09H563.95C564.46 58.15 564.95 58.23 565.47 58.34H565.65C566.16 58.45 566.65 58.58 567.17 58.73H567.34C567.85 58.89 568.34 59.06 568.86 59.24H569C569.51 59.44 570 59.64 570.51 59.87L570.63 59.92C571.14 60.14 571.63 60.39 572.14 60.64H572.22C572.73 60.9 573.22 61.17 573.71 61.45H573.76C574.26 61.74 574.76 62.03 575.24 62.34L602.24 50.59L619.77 42.96C614.42 24.3 602.77 3.22 570.4 7.82C565.82 15.18 559.63 30.27 562.14 58Z" fill="#3EC1F3"/>
<path d="M622.53 311.24C655.53 289.69 632.53 253 630.73 252.11C655.48 220.94 618.81 195.27 618.81 195.27C618.81 195.27 630.69 164.71 603.81 148.51H593.59L592.83 135.68H528.93L527.77 136.01L528.85 148.51H508.23L477.58 196.66L467.97 250.66L468.46 251.47C468.133 252.077 467.8 252.687 467.46 253.3C461.26 265.5 460.35 275.88 461.94 284.3C465.25 301.91 479.43 311.19 479.43 311.19H622.53V311.24Z" fill="#FF7235"/>
<path d="M479.47 327.31H622.48V314.45V311.24H479.47V314.45V327.31Z" fill="#30242A"/>
<path d="M464.53 195.27H618.81" stroke="#A15842" stroke-width="4" stroke-miterlimit="10" stroke-linecap="round"/>
<path d="M468.21 252.11H631.53" stroke="#A15842" stroke-width="4" stroke-miterlimit="10" stroke-linecap="round"/>
<path d="M578.47 152.18L577.56 137.51" stroke="#A15842" stroke-width="4" stroke-miterlimit="10" stroke-linecap="round"/>
<path d="M564.72 152.18L563.81 137.51" stroke="#A15842" stroke-width="4" stroke-miterlimit="10" stroke-linecap="round"/>
<path d="M550.97 152.18L550.06 137.51" stroke="#A15842" stroke-width="4" stroke-miterlimit="10" stroke-linecap="round"/>
<path d="M579.39 124.68C583.444 126.098 587.643 127.06 591.91 127.55" stroke="#A15842" stroke-width="4" stroke-miterlimit="10" stroke-linecap="round"/>
<path d="M642.65 34.84L581.23 62.34" stroke="#30242A" stroke-width="4" stroke-linecap="round" stroke-linejoin="round"/>
<path d="M562.64 76.52L573.39 83.36" stroke="#A15842" stroke-width="4" stroke-miterlimit="10" stroke-linecap="round"/>
<path d="M585.81 68.76L597.73 77.92" stroke="#30242A" stroke-width="4" stroke-linecap="round" stroke-linejoin="round"/>
<path d="M562.89 99.9299L594.98 100.84" stroke="#30242A" stroke-width="4" stroke-linecap="round" stroke-linejoin="round"/>
<path d="M819.58 827.83H484.97V851.67H819.58V827.83Z" fill="#30242A"/>
<path d="M505.59 881C521.794 881 534.93 867.864 534.93 851.66C534.93 835.456 521.794 822.32 505.59 822.32C489.386 822.32 476.25 835.456 476.25 851.66C476.25 867.864 489.386 881 505.59 881Z" fill="#30242A"/>
<path d="M505.59 862.66C511.665 862.66 516.59 857.735 516.59 851.66C516.59 845.585 511.665 840.66 505.59 840.66C499.515 840.66 494.59 845.585 494.59 851.66C494.59 857.735 499.515 862.66 505.59 862.66Z" fill="#FFB7D5"/>
<path d="M551.43 851.66H459.76C459.938 839.621 464.845 828.135 473.421 819.685C481.998 811.234 493.555 806.497 505.595 806.497C517.635 806.497 529.192 811.234 537.769 819.685C546.345 828.135 551.252 839.621 551.43 851.66Z" fill="#FF7235"/>
<path d="M596.17 748.07H681.91C682.91 733.07 685.75 712.13 689.24 683.37C696.6 622.64 702.12 567.43 694.76 523.27C687.4 479.11 622.48 327.27 622.48 327.27H500.21C490.61 410.12 570.79 504.33 596.31 543.46C623.91 585.79 600.91 613.39 586.19 654.79C571.47 696.19 596.31 713.68 596.31 713.68C595.549 725.129 595.502 736.615 596.17 748.07Z" fill="#4856DF"/>
<path d="M528.97 148.51C528.97 148.51 561.83 198 552.81 245.69C546.39 279.61 469.38 309 424.46 319V292.44C424.46 292.44 517.97 269.53 528.97 228.27C535.64 203.27 508.8 148.51 508.8 148.51" fill="#F5EBDD"/>
<path d="M746.24 309C740.74 295.24 723.32 280.58 703.15 273.24C664.39 259.15 570.22 279.66 570.22 279.66L556.11 249.53L486.68 283.53C496.68 303.04 508.68 319.44 520.94 330.78C525.114 325.611 530.715 321.783 537.047 319.771C543.379 317.759 550.163 317.652 556.555 319.463C562.947 321.274 568.666 324.923 573.002 329.958C577.337 334.992 580.097 341.19 580.94 347.78C619.33 344.78 661.79 327.23 673.83 316.4C673.83 316.4 681.16 322.82 689.41 323.73C689.41 326.48 676.58 363.15 699.5 354.9C699.5 354.9 705.91 363.15 715.08 353.99C715.08 353.99 721.5 363.15 730.67 354.9C730.67 354.9 735.67 358.03 742.58 350.32C750.82 341 753.26 326.49 746.24 309Z" fill="#EAA58B"/>
<path d="M508.8 148.51H506.53C487.92 148.51 457.45 162.27 461.12 197.91C464.342 227.744 473.001 256.736 486.67 283.45L556.1 249.45L508.8 148.51Z" fill="#FFB7D5"/>
<path d="M547.31 318.11C542.253 318.106 537.26 319.235 532.697 321.414C528.134 323.593 524.116 326.766 520.94 330.7C523.48 333.071 526.151 335.297 528.94 337.37C541.85 346.81 560.82 349.23 580.94 347.66C579.883 339.489 575.886 331.983 569.697 326.544C563.507 321.106 555.549 318.108 547.31 318.11Z" fill="#CA7358"/>
<path d="M546.39 282.36L568 277.93" stroke="#A15842" stroke-width="4" stroke-linecap="round" stroke-linejoin="round"/>
</svg>
